<svg width="1600" height="1200" viewBox="0 0 1600 1200" fill="none" xmlns="http://www.w3.org/2000/svg">
  <defs>
    <linearGradient id="frame" x1="0" y1="0" x2="1" y2="1">
      <stop stop-color="#4B5563"/>
      <stop offset="0.18" stop-color="#0F172A"/>
      <stop offset="0.82" stop-color="#020617"/>
      <stop offset="1" stop-color="#64748B"/>
    </linearGradient>
    <linearGradient id="screen" x1="0" y1="0" x2="0" y2="1">
      <stop stop-color="#FFFFFF"/>
      <stop offset="1" stop-color="#F0FDF4"/>
    </linearGradient>
    <linearGradient id="brand-card" x1="0" y1="0" x2="1" y2="1">
      <stop stop-color="#047857"/>
      <stop offset="0.52" stop-color="#059669"/>
      <stop offset="1" stop-color="#10B981"/>
    </linearGradient>
    <linearGradient id="quest-card" x1="0" y1="0" x2="1" y2="1">
      <stop stop-color="#064E3B"/>
      <stop offset="0.55" stop-color="#047857"/>
      <stop offset="1" stop-color="#14B8A6"/>
    </linearGradient>
    <linearGradient id="gold" x1="0" y1="0" x2="1" y2="1">
      <stop stop-color="#FEF3C7"/>
      <stop offset="0.48" stop-color="#FBBF24"/>
      <stop offset="1" stop-color="#F59E0B"/>
    </linearGradient>
    <radialGradient id="ambient" cx="0" cy="0" r="1" gradientTransform="translate(800 760) rotate(90) scale(520 720)" gradientUnits="userSpaceOnUse">
      <stop stop-color="#6EE7B7" stop-opacity="0.34"/>
      <stop offset="1" stop-color="#D1FAE5" stop-opacity="0"/>
    </radialGradient>
    <filter id="phone-shadow" x="-30%" y="-20%" width="160%" height="160%" color-interpolation-filters="sRGB">
      <feDropShadow dx="0" dy="34" stdDeviation="34" flood-color="#064E3B" flood-opacity="0.2"/>
      <feDropShadow dx="0" dy="10" stdDeviation="12" flood-color="#020617" flood-opacity="0.22"/>
    </filter>
    <filter id="card-shadow" x="-30%" y="-30%" width="160%" height="160%" color-interpolation-filters="sRGB">
      <feDropShadow dx="0" dy="12" stdDeviation="18" flood-color="#064E3B" flood-opacity="0.16"/>
    </filter>
    <clipPath id="right-screen-clip">
      <rect x="858" y="230" width="522" height="810" rx="66"/>
    </clipPath>
    <clipPath id="left-screen-clip">
      <rect x="214" y="120" width="620" height="966" rx="76"/>
    </clipPath>
  </defs>

  <ellipse cx="800" cy="760" rx="720" ry="520" fill="url(#ambient)"/>

  <g filter="url(#phone-shadow)" transform="rotate(4 1115 635)">
    <rect x="820" y="190" width="600" height="900" rx="98" fill="url(#frame)"/>
    <rect x="832" y="202" width="576" height="876" rx="86" fill="#0B1220" stroke="#94A3B8" stroke-width="3"/>
    <rect x="858" y="230" width="522" height="810" rx="66" fill="url(#screen)"/>

    <g clip-path="url(#right-screen-clip)">
      <circle cx="1290" cy="320" r="180" fill="#D1FAE5"/>
      <circle cx="920" cy="960" r="210" fill="#CCFBF1" fill-opacity="0.75"/>

      <g id="wallet-panel" filter="url(#card-shadow)">
        <rect x="900" y="350" width="438" height="318" rx="54" fill="url(#brand-card)"/>
        <circle cx="1119" cy="494" r="92" fill="#ECFDF5" fill-opacity="0.16"/>
        <path d="M1052 458C1052 438 1068 422 1088 422H1186C1206 422 1222 438 1222 458V550C1222 570 1206 586 1186 586H1088C1068 586 1052 570 1052 550V458Z" fill="#ECFDF5" fill-opacity="0.94"/>
        <path d="M1086 449H1195C1210 449 1222 461 1222 476V526H1134C1114 526 1098 510 1098 490C1098 470 1114 454 1134 454H1198" fill="#A7F3D0"/>
        <circle cx="1136" cy="490" r="10" fill="#047857"/>
        <path d="M1010 405L1020 428L1044 438L1020 448L1010 471L1000 448L976 438L1000 428L1010 405Z" fill="#FDE68A"/>
        <path d="M1250 552L1258 570L1277 578L1258 586L1250 604L1242 586L1223 578L1242 570L1250 552Z" fill="#FFFFFF" fill-opacity="0.9"/>
      </g>

      <g fill="#FFFFFF" filter="url(#card-shadow)">
        <rect x="900" y="714" width="128" height="128" rx="36"/>
        <rect x="1055" y="714" width="128" height="128" rx="36"/>
        <rect x="1210" y="714" width="128" height="128" rx="36"/>
      </g>
      <g fill="none" stroke="#10B981" stroke-width="16" stroke-linecap="round" stroke-linejoin="round">
        <path d="M932 785L958 811L1000 759"/>
        <path d="M1087 778C1087 760 1101 746 1119 746C1137 746 1151 760 1151 778C1151 808 1119 824 1119 824C1119 824 1087 808 1087 778Z"/>
        <circle cx="1274" cy="778" r="36"/>
        <path d="M1238 778H1310M1274 742C1291 762 1291 794 1274 814C1257 794 1257 762 1274 742Z"/>
      </g>
      <g fill="#A7F3D0">
        <circle cx="956" cy="890" r="13"/>
        <circle cx="1000" cy="890" r="13"/>
        <circle cx="1044" cy="890" r="13"/>
        <circle cx="1088" cy="890" r="13"/>
        <circle cx="1132" cy="890" r="13"/>
        <circle cx="1176" cy="890" r="13"/>
        <circle cx="1220" cy="890" r="13"/>
        <circle cx="1264" cy="890" r="13"/>
      </g>
    </g>

    <rect x="1030" y="244" width="178" height="52" rx="26" fill="#020617"/>
    <circle cx="1180" cy="270" r="8" fill="#1E293B" stroke="#334155" stroke-width="3"/>
    <path d="M1419 410V546" stroke="#475569" stroke-width="12" stroke-linecap="round"/>
  </g>

  <g filter="url(#phone-shadow)" transform="rotate(-3 524 620)">
    <rect x="168" y="70" width="712" height="1080" rx="116" fill="url(#frame)"/>
    <rect x="182" y="84" width="684" height="1052" rx="102" fill="#0B1220" stroke="#CBD5E1" stroke-width="4"/>
    <rect x="214" y="120" width="620" height="966" rx="76" fill="url(#screen)"/>

    <g clip-path="url(#left-screen-clip)">
      <circle cx="720" cy="238" r="210" fill="#D1FAE5"/>
      <circle cx="210" cy="998" r="250" fill="#CCFBF1" fill-opacity="0.72"/>

      <g id="quest-panel" filter="url(#card-shadow)">
        <rect x="270" y="314" width="508" height="374" rx="62" fill="url(#quest-card)"/>
        <circle cx="524" cy="488" r="120" fill="#FFFFFF" fill-opacity="0.12"/>
        <circle cx="524" cy="488" r="88" fill="#ECFDF5" fill-opacity="0.16" stroke="#A7F3D0" stroke-width="6" stroke-dasharray="18 15"/>
        <path d="M452 402H596V444C596 503 568 548 524 570C480 548 452 503 452 444V402Z" fill="url(#gold)"/>
        <path d="M452 426H418V446C418 484 438 507 470 515M596 426H630V446C630 484 610 507 578 515" stroke="#FCD34D" stroke-width="20" stroke-linecap="round"/>
        <path d="M524 570V608M480 624H568" stroke="#F59E0B" stroke-width="22" stroke-linecap="round"/>
        <path d="M524 430L540 463L576 468L550 493L556 528L524 511L492 528L498 493L472 468L508 463L524 430Z" fill="#FFFFFF" fill-opacity="0.9"/>
        <path d="M362 390L370 410L391 418L370 426L362 446L354 426L333 418L354 410L362 390Z" fill="#FFFFFF" fill-opacity="0.9"/>
        <path d="M686 545L695 567L718 576L695 585L686 607L677 585L654 576L677 567L686 545Z" fill="#FDE68A"/>
      </g>

      <g filter="url(#card-shadow)">
        <rect x="270" y="746" width="144" height="144" rx="42" fill="#FFFFFF"/>
        <rect x="452" y="746" width="144" height="144" rx="42" fill="#FFFFFF"/>
        <rect x="634" y="746" width="144" height="144" rx="42" fill="#FFFFFF"/>
      </g>
      <g stroke-linecap="round" stroke-linejoin="round">
        <path d="M342 782C365 805 365 840 342 863C319 840 319 805 342 782Z" fill="#FED7AA" stroke="#F97316" stroke-width="14"/>
        <path d="M524 780L486 832H524L506 872L562 812H524L542 780H524Z" fill="#FEF3C7" stroke="#F59E0B" stroke-width="12"/>
        <path d="M706 785L750 823L706 866L662 823L706 785Z" fill="#CCFBF1" stroke="#14B8A6" stroke-width="14"/>
      </g>

      <path d="M306 965H742" stroke="#D1FAE5" stroke-width="30" stroke-linecap="round"/>
      <path d="M306 965H642" stroke="#10B981" stroke-width="30" stroke-linecap="round"/>
      <circle cx="642" cy="965" r="24" fill="#047857" stroke="#FFFFFF" stroke-width="10"/>
    </g>

    <rect x="398" y="138" width="252" height="62" rx="31" fill="#020617"/>
    <circle cx="615" cy="169" r="9" fill="#1E293B" stroke="#334155" stroke-width="3"/>
    <path d="M159 310V452" stroke="#475569" stroke-width="13" stroke-linecap="round"/>
    <path d="M159 498V610" stroke="#475569" stroke-width="13" stroke-linecap="round"/>
  </g>
</svg>
